<svg width="167" height="167" viewBox="0 0 167 167" fill="none" xmlns="http://www.w3.org/2000/svg">
<g clip-path="url(#clip0_1_23)">
<path fill-rule="evenodd" clip-rule="evenodd" d="M83.0625 0C75.6656 18.1352 71.2042 29.9977 62.9688 47.5938C68.0181 52.9461 74.216 59.1791 84.2812 66.2188C73.4601 61.7659 66.0787 57.2954 60.5625 52.6562C50.0227 74.6492 33.5099 105.977 0 166.188C26.3376 150.982 46.7541 141.608 65.7812 138.031C64.9642 134.517 64.4997 130.716 64.5312 126.75L64.5625 125.906C64.9804 109.032 73.7582 96.0565 84.1562 96.9375C94.5543 97.8185 102.637 112.22 102.219 129.094C102.14 132.269 101.782 135.323 101.156 138.156C119.977 141.838 140.175 151.188 166.156 166.188C161.033 156.756 156.461 148.254 152.094 140.156C145.215 134.825 138.041 127.886 123.406 120.375C133.465 122.989 140.667 126.004 146.281 129.375C101.883 46.7132 98.2877 35.7291 83.0625 0Z" fill="white"/>
</g>
<defs>
<clipPath id="clip0_1_23">
<rect width="166.16" height="166.16" fill="white"/>
</clipPath>
</defs>
</svg>
